<?xml version="1.0" encoding="utf-8"?>
<!-- Generator: Adobe Illustrator 23.0.3, SVG Export Plug-In . SVG Version: 6.00 Build 0)  -->
<svg version="1.1" id="Layer_1" xmlns="http://www.w3.org/2000/svg" xmlns:xlink="http://www.w3.org/1999/xlink" x="0px" y="0px"
	 viewBox="0 0 40 40" style="enable-background:new 0 0 40 40;" xml:space="preserve">
<style type="text/css">
	.st0{fill:#FFFFFF;}
	.st1{fill:none;}
	.st2{fill:#2A2A2A;}
</style>
<g>
	<circle class="st0" cx="20" cy="20" r="20"/>
</g>
<g>
	<rect x="0" y="0" class="st1" width="33" height="40"/>
	<path class="st2" d="M20.63,24.43c0.62-1.49,1.33-2.95,2.14-4.38c0.52-0.94,0.97-1.57,1.36-1.9c0.39-0.33,0.88-0.49,1.47-0.49
		c0.38,0,0.76,0.04,1.15,0.11c-1,0.82-2.04,2.18-3.13,4.1c-1.09,1.92-1.96,3.91-2.62,5.99c-0.62-0.39-1.18-1.26-1.7-2.62l-0.45-1.16
		c-0.09-0.22-0.3-0.78-0.64-1.68c-1.17-3.11-2.43-5.6-3.78-7.47c1.38,0.11,2.37,0.64,2.99,1.59C18.04,17.47,19.11,20.1,20.63,24.43z
		"/>
</g>
<g>
</g>
<g>
</g>
<g>
</g>
<g>
</g>
<g>
</g>
<g>
</g>
<g>
</g>
<g>
</g>
<g>
</g>
<g>
</g>
<g>
</g>
<g>
</g>
<g>
</g>
<g>
</g>
<g>
</g>
</svg>
